<?xml version="1.0" encoding="utf-8"?>
<!-- Generator: Adobe Illustrator 23.0.2, SVG Export Plug-In . SVG Version: 6.00 Build 0)  -->
<svg version="1.1" id="Layer_1" xmlns="http://www.w3.org/2000/svg" xmlns:xlink="http://www.w3.org/1999/xlink" x="0px" y="0px"
	 viewBox="0 0 32 32" style="enable-background:new 0 0 32 32;" xml:space="preserve">
<style type="text/css">
	.Blue{fill:#1177D7;}
</style>
<path class="Blue" d="M2,3v10c0,0.6,0.4,1,1,1h10c0.6,0,1-0.4,1-1V3c0-0.6-0.4-1-1-1H3C2.4,2,2,2.4,2,3z M12,12H4V4h8V12z"/>
<path class="Blue" d="M2,17v10c0,0.6,0.4,1,1,1h10c0.6,0,1-0.4,1-1V17c0-0.6-0.4-1-1-1H3C2.4,16,2,16.4,2,17z M12,26H4v-8h8V26z"/>
<path class="Blue" d="M16,3v10c0,0.6,0.4,1,1,1h10c0.6,0,1-0.4,1-1V3c0-0.6-0.4-1-1-1H17C16.4,2,16,2.4,16,3z M26,12h-8V4h8V12z"/>
</svg>
