<?xml version="1.0" encoding="utf-8"?>
<!-- Generator: Adobe Illustrator 23.0.3, SVG Export Plug-In . SVG Version: 6.00 Build 0)  -->
<svg version="1.1" id="Layer_1" xmlns="http://www.w3.org/2000/svg" xmlns:xlink="http://www.w3.org/1999/xlink" x="0px" y="0px"
	 viewBox="0 0 32 32" style="enable-background:new 0 0 32 32;" xml:space="preserve">
<style type="text/css">
	.Blue{fill:#1177D7;}
</style>
<path class="Blue" d="M16,2C8.3,2,2,8.3,2,16s6.3,14,14,14s14-6.3,14-14S23.7,2,16,2z M16,24c-1.1,0-2-0.9-2-2s0.9-2,2-2s2,0.9,2,2
	S17.1,24,16,24z M18.8,14.9c-0.8,0.7-1.5,1.5-1.5,2.4V18h-2.7v-0.9c0-0.6,0.4-1.9,2-3.1c1.2-0.9,1.9-4-0.6-4c-1.2,0-2,1.1-2,3h-2.7
	c0-2.6,1.6-5,4.6-5c3.4,0,4.4,2.2,4.4,3.3C20.3,13.1,19.6,14.3,18.8,14.9z"/>
</svg>
