<?xml version="1.0" encoding="utf-8"?>
<!-- Generator: Adobe Illustrator 23.0.3, SVG Export Plug-In . SVG Version: 6.00 Build 0)  -->
<svg version="1.1" id="Layer_1" xmlns="http://www.w3.org/2000/svg" xmlns:xlink="http://www.w3.org/1999/xlink" x="0px" y="0px"
	 viewBox="0 0 32 32" style="enable-background:new 0 0 32 32;" xml:space="preserve">
<style type="text/css">
	.Blue{fill:#1177D7;}
</style>
<path class="Blue" d="M6,4h23V3c0-0.6-0.4-1-1-1H6C4.3,2,3,3.3,3,5v22c0,1.7,1.3,3,3,3h22c0.6,0,1-0.4,1-1V6H6C5.4,6,5,5.6,5,5
	S5.4,4,6,4z M17,24h-2v-2h2V24z M15.9,12c4.1,0,3.9,3.3,3.7,4.1c-0.3,1.2-2,2.5-2.1,2.6c-0.5,0.3-0.6,0.9-0.6,1.1v0.6h-2v-0.7
	c0-0.4,0.1-1.1,0.4-1.6c0.4-0.7,1.4-1.2,1.6-1.4c0.7-0.7,0.9-2.9-1-2.9c-1.4,0-1.6,1.2-1.6,2.2h-2.2C12.1,15.3,13,12,15.9,12z"/>
</svg>
